<svg xmlns="http://www.w3.org/2000/svg" width="34.419" height="34.395" viewBox="0 0 34.419 34.395">
  <path id="codepen" d="M232.315,365.942a1.524,1.524,0,0,1-.844-.255L215.816,355.3a1.526,1.526,0,0,1-.434-.415h0l-.023-.035h0a1.519,1.519,0,0,1-.251-.858V343.484a1.516,1.516,0,0,1,.237-.837c.014-.022.028-.043.043-.064a1.505,1.505,0,0,1,.43-.409L231.454,331.8a1.6,1.6,0,0,1,1.721,0l15.668,10.394a1.532,1.532,0,0,1,.682,1.293v10.526a1.526,1.526,0,0,1-.682,1.271l-15.685,10.4A1.523,1.523,0,0,1,232.315,365.942Zm1.524-11.255v6.888L245.254,354l-5.156-3.467ZM219.377,354l11.413,7.573v-6.888l-6.258-4.151Zm7.9-5.309,5.043,3.346,5.043-3.346-5.043-3.392Zm15.578.017,3.625,2.438v-4.842Zm-24.694-2.4v4.843l3.624-2.438Zm15.683-3.654,6.271,4.217,5.132-3.4-11.4-7.565Zm-14.45.812,5.131,3.4,6.27-4.217V335.9Z" transform="translate(-215.106 -331.547)" fill="#fff"/>
</svg>
