<svg xmlns="http://www.w3.org/2000/svg" width="36.292" height="35.397" viewBox="0 0 36.292 35.397">
  <path id="github" d="M18.146,0A18.148,18.148,0,0,0,12.41,35.365c.906.168,1.2-.395,1.2-.873V31.114c-5.048,1.1-6.1-2.141-6.1-2.141A4.806,4.806,0,0,0,5.5,26.318c-1.647-1.127.126-1.1.126-1.1A3.809,3.809,0,0,1,8.4,27.086a3.863,3.863,0,0,0,5.28,1.508,3.85,3.85,0,0,1,1.152-2.426c-4.03-.461-8.267-2.017-8.267-8.969a7.023,7.023,0,0,1,1.869-4.871,6.527,6.527,0,0,1,.177-4.8s1.524-.487,4.992,1.86a17.2,17.2,0,0,1,9.087,0c3.464-2.347,4.986-1.86,4.986-1.86a6.521,6.521,0,0,1,.178,4.8A7,7,0,0,1,29.723,17.2c0,6.97-4.245,8.5-8.285,8.953a4.337,4.337,0,0,1,1.245,3.36v4.98c0,.482.29,1.049,1.211.871A18.149,18.149,0,0,0,18.146,0Z" fill="#fff"/>
</svg>
