<svg xmlns="http://www.w3.org/2000/svg" width="35.397" height="35.397" viewBox="0 0 35.397 35.397">
  <path id="instagram" d="M17.7,3.19c4.725,0,5.286.018,7.153.1,4.8.218,7.037,2.494,7.255,7.255.086,1.866.1,2.426.1,7.152s-.018,5.286-.1,7.152c-.22,4.756-2.454,7.037-7.255,7.255-1.867.086-2.425.1-7.153.1s-5.286-.018-7.152-.1C5.739,31.887,3.51,29.6,3.292,24.85c-.086-1.866-.1-2.425-.1-7.152s.019-5.284.1-7.152c.22-4.759,2.454-7.037,7.255-7.255,1.867-.084,2.426-.1,7.152-.1ZM17.7,0c-4.807,0-5.408.021-7.3.106C3.975.4.4,3.967.108,10.4.021,12.29,0,12.892,0,17.7s.021,5.41.106,7.3C.4,31.424,3.967,35,10.4,35.291c1.889.086,2.491.106,7.3.106s5.41-.021,7.3-.106C31.418,35,35,31.429,35.289,25c.087-1.888.108-2.491.108-7.3s-.021-5.408-.106-7.3C35,3.981,31.431.4,25,.108,23.108.021,22.505,0,17.7,0Zm0,8.61A9.089,9.089,0,1,0,26.787,17.7,9.088,9.088,0,0,0,17.7,8.61Zm0,14.988a5.9,5.9,0,1,1,5.9-5.9A5.9,5.9,0,0,1,17.7,23.6Zm9.448-17.47a2.124,2.124,0,1,0,2.122,2.124A2.125,2.125,0,0,0,27.146,6.128Z" fill="#fff"/>
</svg>
