<svg xmlns="http://www.w3.org/2000/svg" width="35.388" height="28.759" viewBox="0 0 35.388 28.759">
  <path id="twitter" d="M35.388,5.653A14.5,14.5,0,0,1,31.218,6.8,7.272,7.272,0,0,0,34.41,2.779,14.544,14.544,0,0,1,29.8,4.541a7.265,7.265,0,0,0-12.372,6.62A20.611,20.611,0,0,1,2.464,3.577,7.27,7.27,0,0,0,4.71,13.27a7.229,7.229,0,0,1-3.287-.908,7.266,7.266,0,0,0,5.823,7.21,7.277,7.277,0,0,1-3.279.124,7.266,7.266,0,0,0,6.783,5.041A14.6,14.6,0,0,1,0,27.745a20.553,20.553,0,0,0,11.129,3.262c13.48,0,21.1-11.385,20.636-21.6a14.781,14.781,0,0,0,3.623-3.758Z" transform="translate(0 -2.248)" fill="#fff"/>
</svg>
