<svg xmlns="http://www.w3.org/2000/svg" width="78.356" height="79.861" viewBox="0 0 78.356 79.861">
  <path id="Asterisk" d="M439.777,457.626l17.469,14.834a39.869,39.869,0,0,0,12.916-22.349l-21.591-7.716,21.591-7.715a39.87,39.87,0,0,0-12.916-22.349l-17.469,14.834,4.114-22.555a39.9,39.9,0,0,0-25.814,0l4.114,22.555-17.469-14.834a39.875,39.875,0,0,0-12.916,22.349l21.591,7.715-21.591,7.716a39.875,39.875,0,0,0,12.916,22.349l17.469-14.834-4.114,22.555a39.9,39.9,0,0,0,25.814,0Z" transform="translate(-391.806 -402.465)" fill="#FFF"/>
</svg>
