<svg id="Groupe_5" data-name="Groupe 5" xmlns="http://www.w3.org/2000/svg" width="52.467" height="18.504" viewBox="0 0 52.467 18.504">
  <path id="Tracé_2" data-name="Tracé 2" d="M410.426,590.568v-15.53a1.454,1.454,0,0,1,1.454-1.454h0a1.454,1.454,0,0,1,1.454,1.454v15.53a1.454,1.454,0,0,1-1.454,1.454h0A1.454,1.454,0,0,1,410.426,590.568Z" transform="translate(-379.634 -573.518)" fill="#fff"/>
  <path id="Tracé_3" data-name="Tracé 3" d="M456.385,578.462v11.549a1.457,1.457,0,0,1-1.457,1.457h0a1.457,1.457,0,0,1-1.457-1.457V574.543A1.543,1.543,0,0,1,455.015,573h0a1.543,1.543,0,0,1,1.209.584l10.1,12.733V574.5a1.47,1.47,0,0,1,1.47-1.47h0a1.47,1.47,0,0,1,1.47,1.47v15.337a1.635,1.635,0,0,1-1.635,1.635h0a1.636,1.636,0,0,1-1.275-.611Z" transform="translate(-416.794 -573)" fill="#fff"/>
  <path id="Tracé_4" data-name="Tracé 4" d="M166.561,573H148v18.5h18.561a9.252,9.252,0,0,0,0-18.5Z" transform="translate(-148 -573)" fill="#ff6e42"/>
</svg>
